<svg xmlns="http://www.w3.org/2000/svg" xmlns:xlink="http://www.w3.org/1999/xlink" version="1.1" x="0px" y="0px" viewBox="0 0 100 125" enable-background="new 0 0 100 100" xml:space="preserve"><path d="M22.563,6.875v7.83h-7.859v-7.83H22.563z M93.125,53.919v23.518h-7.829v7.858h-7.859v7.83h-7.829v-7.83H30.393v7.83h-7.829  v-7.83h-7.859v-7.858H6.875V46.081h7.829v-7.849h31.377v-7.839h7.838v7.839h23.518v7.849h7.859v7.839H93.125z M38.231,61.768h-7.839  v-7.849h-7.829v7.849h-7.859v7.839h7.859v7.83h7.829v-7.83h7.839V61.768z M77.437,69.607h-7.829h-7.839h-7.85h-7.838v7.83h7.838  h7.85h7.839h7.829V69.607z M77.437,53.919h-7.829h-7.839h-7.85h-7.838v7.849h7.838h7.85h7.839h7.829V53.919z M38.231,22.563v7.83  h7.85v-7.83H38.231z M30.393,14.705h-7.829v7.858h7.829h7.839v-7.858H30.393z"/></svg>