<svg
      xmlns="http://www.w3.org/2000/svg"
      version="1"
      viewBox="0 0 624.51 624.51"
    >
      <g transform="translate(-59.794 -213.92)">
        <g
          strokeLinecap="round"
          strokeLinejoin="round"
          strokeMiterlimit="3.8"
          transform="translate(26.063 125.64)"
        >
          <path
            fill="#000"
            stroke="#000"
            strokeWidth="0.6"
            d="M341.94 88.594c-170.35 2.16-307.91 141.09-307.91 311.94 0 172.2 139.74 311.97 311.94 311.97s311.97-139.77 311.97-311.97-139.77-311.94-311.97-311.94c-1.345 0-2.69-.017-4.031 0zm4.03 299.66c6.786 0 12.312 5.495 12.312 12.281 0 6.786-5.526 12.312-12.312 12.312s-12.281-5.526-12.281-12.312 5.495-12.281 12.281-12.281z"
          ></path>
          <path
            fill="none"
            stroke="#6a6a6a"
            strokeWidth="0.341"
            d="M225.41 272.48c68.543-8.13 132.53 42.441 140.66 110.95 8.16 68.8-42.601 133.03-111.36 141.18-69.057 8.19-133.52-42.761-141.71-111.78-8.22-69.314 42.921-134.02 112.2-142.24 69.571-8.25 134.52 43.08 142.76 112.61 8.28 69.827-43.24 135.01-113.03 143.29-70.084 8.31-135.51-43.4-143.81-113.45-8.339-70.341 43.56-136.01 113.86-144.34 70.598-8.369 136.5 43.72 144.87 114.28 8.399 70.855-43.88 137-114.7 145.39-71.111 8.428-137.5-44.04-145.92-115.11-8.458-71.368 44.199-137.99 115.53-146.45 71.625-8.488 138.49 44.359 146.97 115.95 8.518 71.882-44.519 138.99-116.36 147.5-72.139 8.548-139.48-44.679-148.02-116.78-8.578-72.395 44.839-139.98 117.2-148.55 72.652-8.607 140.47 44.999 149.08 117.61 8.637 72.909-45.159 140.97-118.03 149.6-73.166 8.667-141.47-45.318-150.13-118.45-8.697-73.423 45.478-141.96 118.86-150.66 73.68-8.727 142.46 45.638 151.18 119.28 8.757 73.936-45.798 142.96-119.7 151.71-74.21 8.81-143.47-45.94-152.25-120.09-8.813-74.45 46.12-143.95 120.53-152.76 74.707-8.846 144.45 46.278 153.29 120.95 8.876 74.964-46.437 144.94-121.36 153.81-75.22 8.9-145.44-46.6-154.34-121.78-8.938-75.48 46.75-145.94 122.19-154.87 75.734-8.966 146.43 46.917 155.39 122.61 8.995 75.991-47.077 146.93-123.03 155.92-76.24 9.03-147.42-47.23-156.44-123.44-9.053-76.51 47.4-147.92 123.86-156.97 76.761-9.085 148.42 47.556 157.5 124.28 9.115 77.018-47.716 148.91-124.7 158.02-77.27 9.14-149.4-47.88-158.54-125.11-9.178-77.54 48.03-149.91 125.53-159.08 77.788-9.204 150.4 48.196 159.6 125.95 9.234 78.045-48.356 150.9-126.36 160.13-78.31 9.26-151.4-48.52-160.66-126.78-9.293-78.56 48.68-151.9 127.2-161.18 78.816-9.324 152.39 48.835 161.71 127.61 9.353 79.073-48.995 152.88-128.03 162.23-79.329 9.383-153.38-49.155-162.76-128.45-9.413-79.586 49.315-153.88 128.86-163.28 79.843-9.443 154.37 49.475 163.81 129.28 9.473 80.1-49.635 154.87-129.7 164.34-80.35 9.5-155.36-49.8-164.86-130.12-9.533-80.61 49.95-155.86 130.53-165.39 80.87-9.56 156.36 50.12 165.91 130.95 9.6 81.13-50.27 156.85-131.36 166.44-81.38 9.62-157.35-50.43-166.97-131.78-9.649-81.64 50.6-157.85 132.2-167.49 81.897-9.682 158.34 50.754 168.02 132.61 9.711 82.154-50.913 158.84-133.03 168.55-82.41 9.74-159.34-51.08-169.07-133.45-9.774-82.67 51.23-159.83 133.86-169.6 82.925-9.801 160.33 51.393 170.13 134.28 9.83 83.182-51.553 160.83-134.7 170.65-83.438 9.86-161.32-51.713-171.18-135.11-9.89-83.695 51.873-161.82 135.53-171.7 83.952-9.92 162.32 52.032 172.23 135.95 9.95 84.209-52.192 162.81-136.36 172.76-84.47 9.97-163.31-52.36-173.28-136.79-10.014-84.72 52.51-163.8 137.19-173.81 84.98-10.04 164.3 52.67 174.34 137.61 10.07 85.24-52.83 164.8-138.03 174.86-85.5 10.1-165.3-52.99-175.39-138.44-10.129-85.75 53.15-165.79 138.86-175.91 86.006-10.159 166.29 53.311 176.44 139.28 10.189 86.263-53.471 166.78-139.7 176.97-86.51 10.21-167.27-53.64-177.49-140.12-10.244-86.78 53.8-167.78 140.53-178.02 87.04-10.28 168.28 53.95 178.55 140.95 10.31 87.29-54.11 168.76-141.36 179.07-87.55 10.33-169.27-54.27-179.6-141.78-10.369-87.81 54.43-169.76 142.19-180.13 88.07-10.39 170.26 54.59 180.65 142.62 10.43 88.31-54.75 170.75-143.02 181.17C170.29 570.9 87.61 505.53 77.16 417c-10.485-88.84 55.07-171.75 143.87-182.23 89.08-10.52 172.24 55.23 182.75 144.28 10.55 89.34-55.39 172.74-144.7 183.28-89.6 10.57-173.23-55.55-183.8-145.11-10.61-89.86 55.71-173.74 145.53-184.34 90.11-10.63 174.22 55.87 184.86 145.95 10.66 90.37-56.03 174.72-146.37 185.38-90.63 10.7-175.22-56.18-185.91-146.78-10.725-90.88 56.35-175.71 147.2-186.43 91.14-10.76 176.21 56.5 186.96 147.61 10.79 91.4-56.67 176.71-148.03 187.49-91.65 10.82-177.2-56.83-188.02-148.45-10.84-91.91 56.99-177.7 148.87-188.54 92.17-10.87 178.2 57.15 189.07 149.28 10.9 92.43-57.31 178.7-149.7 189.6-92.68 10.93-179.19-57.47-190.12-150.12-10.965-92.94 57.63-179.69 150.53-190.65 93.2-10.99 180.18 57.79 191.17 150.95 11.03 93.45-57.94 180.68-151.36 191.7-93.71 11.06-181.18-58.11-192.23-151.78-11.08-93.97 58.27-181.67 152.2-192.75 94.22-11.11 182.17 58.43 193.28 152.61 11.14 94.48-58.59 182.67-153.03 193.81-94.74 11.17-183.16-58.75-194.33-153.45-11.205-94.99 58.9-183.66 153.86-194.86 95.252-11.233 184.16 59.066 195.38 154.28 11.263 95.509-59.226 184.65-154.7 195.91-95.76 11.3-185.14-59.38-196.43-155.11-11.32-96.02 59.55-185.65 155.53-196.96 96.28-11.36 186.14 59.7 197.49 155.94 11.38 96.54-59.86 186.64-156.36 198.02-96.79 11.41-187.14-60.03-198.54-156.78-11.446-97.05 60.18-187.63 157.19-199.07 97.306-11.472 188.13 60.345 199.59 157.61 11.502 97.563-60.505 188.62-158.03 200.12-97.81 11.54-189.11-60.66-200.64-158.44-11.561-98.08 60.83-189.62 158.86-201.17 98.333-11.591 190.11 60.984 201.7 159.28 11.621 98.59-61.144 190.61-159.7 202.23C162.21 590.95 69.95 518 58.31 419.19c-11.686-99.11 61.46-191.6 160.52-203.28 99.36-11.71 192.1 61.62 203.81 160.95 11.74 99.61-61.79 192.59-161.36 204.33-99.88 11.77-193.1-61.95-204.86-161.78-11.801-100.13 62.1-193.59 162.2-205.39C319 202.19 412.7 276.29 424.52 376.64c11.86 100.64-62.42 194.58-163.03 206.43-100.9 11.89-195.07-62.58-206.96-163.44-11.916-101.16 62.75-195.58 163.87-207.49 101.41-11.95 196.07 62.9 208.01 164.28 11.98 101.67-63.06 196.56-164.7 208.54-101.93 12.01-197.06-63.22-209.06-165.12-12.041-102.18 63.38-197.55 165.53-209.59 102.44-12.07 198.05 63.54 210.12 165.95 12.09 102.7-63.71 198.55-166.37 210.64-102.95 12.13-199.04-63.86-211.17-166.78-12.156-103.21 64.02-199.54 167.2-211.69C321.43 196.18 418 272.55 430.18 375.98c12.22 103.73-64.34 200.54-168.03 212.75-103.98 12.25-201.03-64.5-213.27-168.45-12.282-104.24 64.66-201.53 168.86-213.8 104.5-12.31 202.02 64.82 214.33 169.28 12.33 104.75-64.98 202.52-169.7 214.85C157.36 602.98 59.35 525.47 46.99 420.5c-12.397-105.27 65.3-203.51 170.53-215.9 105.52-12.43 204.01 65.46 216.43 170.94 12.46 105.78-65.62 204.51-171.36 216.96-106.04 12.49-205-65.78-217.49-171.78-12.512-106.29 65.94-205.5 172.2-218.01 106.55-12.55 206 66.1 218.54 172.61 12.57 106.81-66.26 206.5-173.03 219.07-107.07 12.6-206.99-66.42-219.59-173.45-12.637-107.32 66.58-207.49 173.86-220.12 107.58-12.665 207.98 66.739 220.64 174.28 12.695 107.84-66.899 208.48-174.7 221.17C154.94 609 54.05 529.21 41.33 421.16c-12.752-108.35 67.22-209.47 175.53-222.22 108.61-12.79 209.97 67.38 222.75 175.94 12.81 108.87-67.54 210.47-176.36 223.28C154.13 611 52.29 530.46 39.45 421.38 26.573 312 107.31 209.92 216.64 197.05c109.64-12.9 211.96 68.02 224.86 177.61 12.93 109.89-68.18 212.45-178.03 225.38C153.32 613.01 50.52 531.71 37.56 421.6c-12.992-110.41 68.5-213.44 178.86-226.43 110.66-13.03 213.94 68.65 226.96 179.28 13.05 110.91-68.82 214.43-179.69 227.48-111.18 13.08-214.94-68.98-228.01-180.11-13.117-111.43 69.13-215.43 180.52-228.54 111.69-13.14 215.93 69.3 229.07 180.95 13.17 111.94-69.46 216.42-181.37 229.59-112.2 13.2-216.91-69.62-230.11-181.78-13.233-112.46 69.78-217.42 182.2-230.65 112.71-13.26 217.91 69.94 231.16 182.62 13.3 112.97-70.09 218.4-183.03 231.69C150.9 619.02 45.22 535.44 31.9 422.25c-13.348-113.48 70.42-219.39 183.87-232.74 113.74-13.38 219.89 70.57 233.27 184.28 13.41 114-70.74 220.39-184.7 233.8-114.25 13.44-220.89-70.9-234.32-185.12-13.473-114.51 71.05-221.38 185.53-234.85 114.77-13.5 221.88 71.22 235.37 185.95 13.54 115.03-71.37 222.38-186.36 235.9-115.28 13.56-222.87-71.53-236.43-186.78-13.588-115.54 71.697-223.37 187.2-236.95 115.8-13.62 223.87 71.85 237.48 187.61 13.65 116.05-72.01 224.36-188.03 238.01-116.31 13.68-224.86-72.18-238.53-188.45-13.713-116.56 72.331-225.35 188.86-239.06 116.82-13.74 225.85 72.5 239.59 189.28 13.77 117.08-72.66 226.35-189.7 240.11-117.34 13.8-226.84-72.81-240.64-190.11-13.828-117.59 72.974-227.34 190.53-241.16 117.85-13.86 227.84 73.13 241.69 190.94 13.89 118.11-73.29 228.34-191.36 242.22-118.37 13.92-228.83-73.45-242.74-191.78C8.527 304.73 96.088 194.02 214.67 180.08c118.88-13.98 229.82 73.77 243.8 192.61 14.01 119.14-73.93 230.32-193.03 244.33-119.39 14.03-230.82-74.1-244.85-193.45C6.522 303.92 94.842 192.26 214.45 178.19c119.91-14.09 231.81 74.42 245.9 194.28 14.13 120.17-74.57 232.31-194.69 246.43-120.42 14.16-232.8-74.73-246.96-195.11-14.184-120.68 74.895-233.3 195.53-247.48 120.94-14.22 233.8 75.05 248.01 195.94 14.25 121.19-75.21 234.3-196.36 248.54-121.45 14.27-234.79-75.37-249.06-196.78C2.511 302.3 92.349 188.72 214.01 174.42c121.96-14.33 235.78 75.69 250.12 197.62 14.36 122.21-75.86 236.27-198.03 250.63-122.48 14.4-236.78-76.01-251.17-198.44C.506 301.5 91.103 186.96 213.79 172.54c122.99-14.46 237.77 76.33 252.22 199.28 14.49 123.24-76.49 238.26-199.7 252.74-123.5 14.51-238.75-76.65-253.26-200.11-14.549-123.76 76.806-239.26 200.53-253.8 124.01-14.57 239.75 76.97 254.32 200.95 14.6 124.27-77.13 240.24-201.37 254.84-124.52 14.64-240.74-77.29-255.37-201.77-14.664-124.79 77.45-241.24 202.2-255.9 125.04-14.7 241.73 77.6 256.42 202.61 14.73 125.3-77.77 242.23-203.03 256.95C141.2 643.08 24.02 550.4 9.27 424.88c-14.779-125.81 78.094-243.22 203.87-258 126.07-14.81 243.72 78.25 258.53 204.28 14.84 126.33-78.41 244.22-204.7 259.06C140.39 645.09 22.26 551.65 7.39 425.1-7.514 298.26 86.117 179.89 212.92 164.99c127.09-14.93 245.71 78.89 260.63 205.95 14.97 127.35-79.04 246.2-206.36 261.16C139.58 647.09 20.49 552.89 5.5 425.32-9.52 297.46 84.871 178.13 212.7 163.11c128.12-15.05 247.69 79.53 262.74 207.61 15.08 128.38-79.69 248.19-208.03 263.27C138.77 649.1 18.72 554.14 3.62 425.54c-15.145-128.89 80.005-249.18 208.86-264.32 129.15-15.17 249.68 80.17 264.85 209.28 15.2 129.41-80.33 250.18-209.7 265.37-129.67 15.24-250.67-80.48-265.9-210.11-15.26-129.92 80.648-251.17 210.53-266.42 130.18-15.29 251.67 80.8 266.95 210.94 15.32 130.44-80.97 252.16-211.36 267.48-130.69 15.35-252.66-81.13-268-211.78-15.385-130.95 81.282-253.15 212.19-268.53 131.21-15.41 253.65 81.45 269.06 212.61 15.44 131.47-81.61 254.15-213.03 269.59C136.35 655.12 13.43 557.88-2.04 426.2c-15.5-131.98 81.926-255.14 213.86-270.64 132.24-15.52 255.64 82.09 271.16 214.28 15.56 132.49-82.24 256.14-214.69 271.69-132.75 15.59-256.63-82.4-272.22-215.11-15.615-133.01 82.569-257.13 215.53-272.74 133.26-15.65 257.62 82.72 273.27 215.95 15.68 133.51-82.89 258.11-216.36 273.79C134.73 659.13 9.89 560.37-5.81 426.64c-15.74-134.03 83.203-259.11 217.19-274.85 134.29-15.77 259.61 83.37 275.37 217.62 15.8 134.54-83.52 260.1-218.03 275.89C133.92 661.13 8.13 561.62-7.7 426.86c-15.856-135.06 83.846-261.1 218.87-276.95 135.31-15.89 261.59 84 277.47 219.28 15.92 135.57-84.16 262.09-219.7 278C133.12 663.14 6.36 562.86-9.58 427.08-25.561 290.99 74.9 163.99 210.95 148.02c136.34-16.01 263.57 84.64 279.58 220.95 16.03 136.6-84.81 264.07-221.37 280.1C132.31 665.14 4.59 564.11-11.47 427.29c-16.096-137.11 85.124-265.06 222.2-281.15 137.37-16.13 265.56 85.28 281.68 222.61 16.16 137.62-85.44 266.06-223.03 282.21C131.5 667.15 2.83 565.36-13.36 427.51c-16.211-138.14 85.767-267.05 223.87-283.26C348.9 128 478.06 230.17 494.3 368.53c16.27 138.65-86.08 268.04-224.7 284.32C130.69 669.15 1.06 566.6-15.24 427.73-31.576 288.57 71.161 158.7 210.29 142.36 349.71 126 479.82 228.93 496.18 368.31c16.4 139.68-86.72 270.03-226.36 286.42C129.88 671.16-.71 567.85-17.13 427.95c-16.451-140.19 87.045-271.02 227.2-287.47 140.45-16.49 271.52 87.2 288 227.61 16.51 140.71-87.36 272.02-228.03 288.53C129.08 673.16-2.47 569.1-19.01 428.17c-16.576-141.22 87.678-273.01 228.86-289.58 141.48-16.6 273.51 87.84 290.11 229.28 16.63 141.74-88.01 274-229.7 290.63C128.27 675.17-4.24 570.34-20.9 428.39-37.592 286.14 67.422 153.4 209.63 136.71c142.51-16.73 275.49 88.48 292.21 230.94 16.75 142.77-88.64 275.99-231.36 292.74-143.02 16.78-276.49-88.8-293.26-231.78-16.817-143.28 88.956-276.98 232.19-293.79 143.53-16.84 277.48 89.12 294.32 232.61 16.87 143.79-89.28 277.98-233.03 294.84C126.65 679.18-7.77 572.84-24.67 428.83c-16.932-144.3 89.599-278.97 233.86-295.89 144.56-16.97 279.47 89.75 296.42 234.28 16.99 144.81-89.92 279.95-234.69 296.94C125.84 681.18-9.54 574.08-26.56 429.05c-17.047-145.33 90.243-280.95 235.53-298C354.56 113.97 490.42 221.45 507.5 367c17.11 145.84-90.56 281.94-236.36 299.05C125.03 683.19-11.3 575.33-28.44 429.27c-17.172-146.36 90.877-282.94 237.2-300.11 146.61-17.2 283.43 91.04 300.62 237.62 17.23 146.87-91.19 283.93-238.03 301.15-147.12 17.26-284.42-91.36-301.68-238.44-17.287-147.39 91.52-284.93 238.87-302.21 147.64-17.32 285.41 91.68 302.73 239.28 17.35 147.9-91.84 285.91-239.7 303.26-148.15 17.38-286.41-92-303.78-240.12-17.412-148.41 92.154-286.9 240.53-304.31 148.67-17.44 287.4 92.32 304.84 240.95 17.46 148.92-92.48 287.9-241.37 305.36C122.61 689.2-16.6 579.07-34.1 429.92c-17.527-149.44 92.798-288.89 242.2-306.41 149.69-17.56 289.39 92.95 306.94 242.61 17.59 149.95-93.11 289.89-243.03 307.47C121.8 691.21-18.37 580.31-35.98 430.14c-17.653-150.46 93.431-290.88 243.86-308.52 150.72-17.68 291.37 93.6 309.05 244.28 17.71 150.98-93.76 291.87-244.7 309.58-151.24 17.73-292.37-93.92-310.1-245.12-17.768-151.49 94.075-292.86 245.53-310.62 151.75-17.8 293.36 94.23 311.15 245.94 17.83 152.01-94.39 293.86-246.36 311.68C120.19 695.22-21.9 582.81-39.76 430.58c-17.883-152.52 94.718-294.85 247.2-312.73 152.78-17.918 295.35 94.87 313.26 247.61 17.95 153.04-95.04 295.84-248.03 313.79-153.29 17.97-296.34-95.2-314.31-248.45-18.008-153.55 95.352-296.83 248.86-314.84 153.81-18.033 297.33 95.52 315.36 249.28 18.07 154.06-95.67 297.83-249.69 315.89-154.32 18.1-298.33-95.83-316.42-250.11C-61.653 276.44 52.466 132.2 207 114.08c154.83-18.158 299.32 96.15 317.47 250.94 18.19 155.09-96.31 299.82-251.36 318C117.76 701.23-27.2 586.55-45.41 431.24c-18.248-155.6 96.629-300.81 252.19-319.05 155.86-18.273 301.31 96.79 319.58 252.62 18.3 156.11-96.96 301.79-253.03 320.09-156.38 18.34-302.3-97.11-320.63-253.44-18.363-156.63 97.273-302.79 253.86-321.15 156.89-18.398 303.29 97.43 321.68 254.28 18.43 157.14-97.59 303.78-254.69 322.2-157.4 18.45-304.28-97.75-322.74-255.11-18.479-157.66 97.917-304.78 255.54-323.26 157.91-18.513 305.27 98.07 323.78 255.95 18.54 158.17-98.23 305.77-256.37 324.31C115.34 707.25-32.5 590.28-51.07 431.9c-18.604-158.69 98.55-306.77 257.2-325.37 158.94-18.629 307.26 98.72 325.88 257.62 18.67 159.2-98.87 307.75-258.03 326.41-159.45 18.69-308.25-99.03-326.94-258.45-18.719-159.71 99.194-308.74 258.87-327.46C365.88 85.896 515.15 204 533.9 363.93c18.78 160.22-99.51 309.74-259.7 328.52-160.48 18.81-310.24-99.67-329.04-260.12C-73.684 271.6 44.988 121.6 205.69 102.76c160.99-18.869 311.23 99.99 330.09 260.95 18.91 161.25-100.14 311.73-261.36 330.62C112.91 713.26-37.8 594.02-56.73 432.55c-18.959-161.76 100.47-312.72 262.2-331.67 162.02-18.994 313.21 100.63 332.2 262.61 19.02 162.28-100.79 313.71-263.03 332.73C112.1 715.27-39.57 595.27-58.61 432.77c-19.084-162.79 101.1-314.7 263.86-333.78 163.05-19.109 315.2 101.27 334.31 264.28 19.14 163.31-101.43 315.7-264.7 334.83C111.3 717.27-41.33 596.52-60.5 432.99-79.699 269.17 41.25 116.3 205.03 97.11c164.08-19.234 317.19 101.9 336.41 265.94 19.26 164.34-102.07 317.69-266.36 336.94C110.49 719.28-43.1 597.76-62.38 433.21-81.705 268.36 40 114.53 204.81 95.22c165.11-19.349 319.17 102.55 338.52 267.61C562.71 528.19 440.62 682.5 275.3 701.88 109.68 721.28-44.87 599.01-64.27 433.43-83.71 267.55 38.76 112.77 204.59 93.33c166.13-19.464 321.16 103.19 340.62 269.28C564.71 529 441.87 684.27 275.52 703.76 108.87 723.29-46.63 600.26-66.16 433.65-85.715 266.75 37.51 111 204.37 91.45 371.53 71.86 527.52 195.27 547.1 362.39c19.62 167.42-103.99 323.64-271.36 343.26C108.06 725.3-48.4 601.5-68.04 433.87-87.72 265.94 36.26 109.24 204.15 89.56c168.19-19.705 325.13 104.47 344.84 272.62 19.73 168.44-104.63 325.62-273.03 345.35C107.26 727.3-50.17 602.75-69.93 434.09-89.725 265.13 35.02 107.47 203.93 87.68c169.22-19.83 327.12 105.1 346.94 274.28 19.86 169.47-105.26 327.61-274.7 347.46-169.72 19.89-328.1-105.43-347.98-275.11C-91.73 264.32 33.77 105.7 203.72 85.79c170.24-19.945 329.1 105.75 349.04 275.95 19.97 170.5-105.91 329.59-276.37 349.56C105.64 731.31-53.7 605.24-73.7 434.52-93.735 263.51 32.52 103.94 203.5 83.9c171.26-20.06 331.08 106.39 351.14 277.62 20.1 171.52-106.54 331.58-278.03 351.67-171.78 20.13-332.08-106.7-352.2-278.45C-95.74 262.71 31.28 102.17 203.28 82.02 375.57 61.835 536.35 189.04 556.53 361.3c20.21 172.55-107.18 333.57-279.7 353.78-172.81 20.24-334.06-107.35-354.3-280.12C-97.746 261.9 30.03 100.4 203.06 80.13c173.32-20.3 335.06 107.67 355.35 280.95 20.34 173.58-107.82 335.55-281.36 355.88C103.21 737.33-59 608.98-79.36 435.18-99.751 261.09 28.78 98.64 202.84 78.25c174.35-20.426 337.04 108.3 357.46 282.61 20.45 174.61-108.46 337.54-283.03 357.99C102.41 739.33-60.77 610.23-81.24 435.4-101.76 260.28 27.54 96.87 202.62 76.36 378 55.819 541.65 185.3 562.19 360.64c20.57 175.64-109.11 339.53-284.7 360.09C101.6 741.34-62.53 611.47-83.13 435.62-103.76 259.47 26.29 95.1 202.4 74.48c176.41-20.666 341.01 109.58 361.67 285.94 20.69 176.66-109.74 341.51-286.36 362.2C100.79 743.34-64.3 612.72-85.01 435.84-105.77 258.66 25.05 93.34 202.18 72.59c177.43-20.781 343 110.22 363.78 287.61 20.81 177.69-110.38 343.5-288.03 364.31C99.98 745.35-66.06 613.97-86.9 436.06-107.77 257.86 23.8 91.57 201.96 70.7c178.46-20.896 344.99 110.86 365.88 289.28 20.93 178.72-111.02 345.49-289.69 366.41C99.17 747.35-67.83 615.21-88.79 436.28-109.78 257.05 22.55 89.8 201.74 68.82c179.49-21.021 346.97 111.5 367.99 290.95 21.05 179.74-111.66 347.46-291.36 368.51C98.37 749.36-69.6 616.46-90.67 436.5-111.78 256.24 21.31 88.04 201.52 66.93c180.52-21.136 348.96 112.14 370.09 292.62C592.78 540.32 459.32 709 278.58 730.16 97.56 751.36-71.36 617.7-92.56 436.72-113.79 255.43 20.06 86.27 201.31 65.05 382.85 43.789 552.25 177.83 573.5 359.33c21.29 181.79-112.94 351.43-294.7 372.72C96.75 753.37-73.13 618.95-94.44 436.94-115.79 254.62 18.81 84.5 201.09 63.16c182.56-21.377 352.92 113.42 374.3 295.95 21.4 182.82-113.58 353.42-296.37 374.82C95.94 755.37-74.9 620.2-96.33 437.15-117.8 253.82 17.57 82.74 200.87 61.28c183.59-21.502 354.91 114.05 376.4 297.61C598.8 542.74 463.06 714.3 279.24 735.82 95.13 757.38-76.66 621.44-98.22 437.37-119.8 253.01 16.32 80.97 200.65 59.39c184.62-21.617 356.9 114.7 378.51 299.28 12.61 107.68-28.03 217.35-107.73 290.84"
            transform="matrix(.88172 0 0 .88036 133.94 50.507)"
          ></path>
        </g>
      </g>
    </svg>
